Coordinates
version=1
nRows=18
nColumns=63
inDegrees=yes

Units are S.I. units (second, meters, Newtons, ...)
If the header above contains a line with 'inDegrees', this indicates whether rotational values are in degrees (yes) or radians (no).

endheader
time	pelvis_tilt	pelvis_list	pelvis_rotation	pelvis_tx	pelvis_ty	pelvis_tz	hip_flexion_r	hip_adduction_r	hip_rotation_r	knee_angle_r	knee_angle_r_beta	ankle_angle_r	subtalar_angle_r	mtp_angle_r	hip_flexion_l	hip_adduction_l	hip_rotation_l	knee_angle_l	knee_angle_l_beta	ankle_angle_l	subtalar_angle_l	mtp_angle_l	L5_S1_Flex_Ext	L5_S1_Lat_Bending	L5_S1_axial_rotation	L4_L5_Flex_Ext	L4_L5_Lat_Bending	L4_L5_axial_rotation	L3_L4_Flex_Ext	L3_L4_Lat_Bending	L3_L4_axial_rotation	L2_L3_Flex_Ext	L2_L3_Lat_Bending	L2_L3_axial_rotation	L1_L2_Flex_Ext	L1_L2_Lat_Bending	L1_L2_axial_rotation	L1_T12_Flex_Ext	L1_T12_Lat_Bending	L1_T12_axial_rotation	Abs_r3	Abs_r2	Abs_r1	Abs_t1	Abs_t2	neck_flexion	neck_bending	neck_rotation	arm_flex_r	arm_add_r	arm_rot_r	elbow_flex_r	pro_sup_r	wrist_flex_r	wrist_dev_r	arm_flex_l	arm_add_l	arm_rot_l	elbow_flex_l	pro_sup_l	wrist_flex_l	wrist_dev_l
1.288136	-0.428596	-4.046075	89.691406	0.220602	0.673488	0.656240	4.435151	-0.920966	-14.714070	11.389874	0.198791	18.452033	14.937248	0.000000	3.453050	0.789977	-3.897346	7.193522	0.125551	14.893303	-5.686727	0.000000	0.077669	0.112372	0.101887	0.144238	0.149455	0.108255	0.127602	0.273221	0.108255	0.088767	0.273221	0.089151	0.072123	0.229149	0.082783	0.044380	0.174064	0.076416	0.554779	1.271176	0.566667	0.000000	0.000000	19.766382	1.512733	1.603733	-0.419708	-15.660945	18.480232	28.652722	82.216105	-7.977512	0.921648	8.268639	-9.778758	171.793319	-0.610335	43.480868	-20.858871	5.199203
1.305085	-0.394358	-4.048717	89.722435	0.220344	0.673234	0.656100	4.433237	-0.901467	-14.810019	11.410927	0.199158	18.547176	14.973764	0.000000	3.446152	0.785794	-3.627810	7.202745	0.125712	14.832457	-6.063559	0.000000	0.077823	0.119922	0.086145	0.144526	0.159497	0.091529	0.127856	0.291579	0.091529	0.088944	0.291579	0.075377	0.072267	0.244545	0.069993	0.044468	0.185760	0.064609	0.555884	1.356584	0.479113	0.000000	0.000000	19.569195	1.338136	1.687521	-1.084992	-15.794285	12.731420	30.223292	86.405029	-8.184471	2.343140	7.817427	-9.956200	166.187726	0.487345	45.988989	-20.711002	4.827416
1.322034	-0.336775	-4.047514	89.747582	0.220096	0.673058	0.655986	4.425791	-0.849108	-14.902130	11.411535	0.199169	18.577045	15.008732	0.000000	3.437034	0.757338	-3.330959	7.213216	0.125894	14.713106	-6.500311	0.000000	0.077890	0.130053	0.069002	0.144650	0.172970	0.073314	0.127966	0.316210	0.073314	0.089021	0.316210	0.060376	0.072329	0.265203	0.056064	0.044506	0.201452	0.051751	0.556362	1.471182	0.383767	0.000000	0.000000	19.370363	1.161399	1.754725	-1.533899	-15.836824	9.553173	31.201680	88.574229	-8.171884	3.427120	7.537792	-9.925645	164.076041	0.890830	43.284851	-19.850328	3.570716
1.338983	-0.307782	-4.040690	89.777267	0.219935	0.672938	0.655911	4.413632	-0.813400	-14.963581	11.402077	0.199004	18.578542	14.995400	0.000000	3.422339	0.758758	-2.943550	7.217591	0.125971	14.509889	-7.080322	0.000000	0.077642	0.134707	0.054829	0.144188	0.179161	0.058256	0.127557	0.327527	0.058256	0.088737	0.327527	0.047976	0.072098	0.274695	0.044549	0.044364	0.208661	0.041122	0.554586	1.523834	0.304945	0.000000	0.000000	19.154711	1.028665	1.741582	-1.766520	-15.726841	8.942669	31.486431	88.619383	-7.970006	3.981270	7.291633	-9.982895	161.076565	1.464173	39.908587	-18.758999	1.997379
1.355932	-0.282081	-4.029555	89.814087	0.219840	0.672883	0.655860	4.394309	-0.769882	-15.011884	11.378487	0.198592	18.522688	14.932998	0.000000	3.405634	0.757695	-2.558415	7.221680	0.126042	14.288100	-7.644526	0.000000	0.077276	0.137982	0.037993	0.143510	0.183515	0.040368	0.126957	0.335488	0.040368	0.088319	0.335488	0.033244	0.071759	0.281372	0.030869	0.044156	0.213733	0.028495	0.551976	1.560874	0.211306	0.000000	0.000000	18.945306	0.941148	1.739289	-1.737951	-15.490648	11.140370	31.032092	86.342477	-7.483779	3.974342	7.081676	-10.105857	157.276556	2.203449	36.054072	-17.316691	0.213223
1.372881	-0.273387	-4.018037	89.857117	0.219817	0.672894	0.655813	4.369898	-0.733927	-15.041408	11.343508	0.197982	18.419256	14.810218	0.000000	3.383051	0.778294	-2.044682	7.207569	0.125796	14.000668	-8.390975	0.000000	0.077729	0.138148	0.016818	0.144350	0.183737	0.017869	0.127701	0.335894	0.017869	0.088836	0.335894	0.014716	0.072179	0.281712	0.013665	0.044414	0.213992	0.012613	0.555210	1.562760	0.093536	0.000000	0.000000	18.744015	0.924095	1.757297	-1.406857	-15.098924	16.413910	29.743523	81.499589	-6.684420	3.239440	6.903576	-10.303807	152.787499	3.115545	31.799290	-15.641133	-1.841156
1.389831	-0.194437	-4.021557	89.874369	0.219578	0.672839	0.655744	4.365311	-0.641593	-15.086146	11.318157	0.197539	18.264425	14.709034	0.000000	3.370248	0.742593	-1.500420	7.186255	0.125424	13.767926	-9.197007	0.000000	0.079344	0.151238	0.011948	0.147350	0.201147	0.012695	0.130355	0.367721	0.012695	0.090683	0.367721	0.010455	0.073679	0.308405	0.009708	0.045337	0.234268	0.008961	0.566748	1.710839	0.066454	0.000000	0.000000	18.640937	0.809601	1.778268	-1.613276	-15.061176	15.939095	29.905254	81.431710	-6.240159	3.299450	6.836040	-10.347430	148.221727	3.935059	27.256278	-13.564113	-4.042706
1.406780	-0.091729	-4.033872	89.895433	0.219310	0.672803	0.655666	4.360680	-0.526289	-15.151412	11.279765	0.196869	18.060194	14.606561	0.000000	3.371532	0.670676	-1.135270	7.175524	0.125237	13.630622	-9.718695	0.000000	0.082800	0.168072	0.002188	0.153768	0.223535	0.002325	0.136032	0.408649	0.002325	0.094632	0.408649	0.001915	0.076888	0.342732	0.001778	0.047312	0.260343	0.001641	0.591432	1.901259	0.012171	0.000000	0.000000	18.574647	0.707530	1.860254	-1.739335	-15.080966	15.815401	30.001400	81.138764	-5.807500	3.236223	6.784543	-10.415564	142.905296	4.879785	23.097906	-11.532431	-6.244911
1.423729	0.050731	-4.043027	89.896498	0.218953	0.672847	0.655592	4.347621	-0.373110	-15.169459	11.227505	0.195957	17.787722	14.448897	0.000000	3.365585	0.556553	-0.885513	7.159106	0.124950	13.548355	-10.081853	0.000000	0.087357	0.192152	0.000430	0.162231	0.255562	0.000457	0.143519	0.467198	0.000457	0.099841	0.467198	0.000376	0.081120	0.391836	0.000349	0.049916	0.297643	0.000322	0.623984	2.173659	0.002391	0.000000	0.000000	18.492007	0.572556	1.975943	-1.821358	-15.178335	15.901673	30.078900	80.689348	-5.401149	3.153007	7.153630	-10.386380	139.843685	5.419261	16.726432	-9.657658	-9.011402
1.440678	0.184592	-4.058167	89.894293	0.218667	0.672857	0.655484	4.336968	-0.226390	-15.164349	11.176862	0.195073	17.518259	14.262690	0.000000	3.367475	0.436815	-0.787644	7.153397	0.124850	13.549090	-10.211154	0.000000	0.093558	0.214106	-0.009437	0.173746	0.284760	-0.010027	0.153706	0.520576	-0.010027	0.106927	0.520576	-0.008257	0.086878	0.436604	-0.007667	0.053459	0.331649	-0.007078	0.668272	2.422005	-0.052485	0.000000	0.000000	18.430561	0.469370	2.100356	-1.825912	-15.273559	16.201173	30.128297	80.123781	-5.029984	3.119258	7.295498	-10.446689	134.797645	6.314144	12.572635	-8.142733	-11.161121
1.457627	0.302046	-4.073285	89.897390	0.218472	0.672838	0.655368	4.326608	-0.092984	-15.127937	11.135021	0.194343	17.274292	14.046272	0.000000	3.376639	0.319438	-0.813727	7.164989	0.125053	13.621735	-10.142400	0.000000	0.100577	0.232297	-0.027780	0.186781	0.308955	-0.029516	0.165238	0.564807	-0.029516	0.114949	0.564807	-0.024307	0.093396	0.473700	-0.022571	0.057470	0.359828	-0.020835	0.718410	2.627789	-0.154502	0.000000	0.000000	18.358582	0.395948	2.213180	-1.753755	-15.344497	16.667904	30.145461	79.433003	-4.704867	3.164600	7.236498	-10.587388	128.186742	7.484767	10.584473	-6.978992	-12.676077
1.474576	0.395834	-4.093689	89.906444	0.218375	0.672780	0.655264	4.323555	0.019304	-15.065518	11.098356	0.193703	17.066301	13.823060	0.000000	3.401921	0.212439	-0.945575	7.196198	0.125597	13.756420	-9.905285	0.000000	0.108296	0.245387	-0.050333	0.201116	0.326364	-0.053479	0.177919	0.596633	-0.053479	0.123771	0.596633	-0.044042	0.100564	0.500392	-0.040896	0.061880	0.380104	-0.037750	0.773547	2.775863	-0.279940	0.000000	0.000000	18.306298	0.337439	2.251710	-1.649288	-15.366787	17.128158	30.180970	78.634666	-4.401637	3.362613	7.020409	-10.782573	120.657120	8.854146	10.725445	-6.167501	-13.400153
1.491525	0.463170	-4.111158	89.904880	0.218424	0.672717	0.655190	4.319445	0.111806	-14.962220	11.056874	0.192979	16.897884	13.607995	0.000000	3.434959	0.112432	-1.244242	7.246881	0.126482	13.961941	-9.426682	0.000000	0.114727	0.252504	-0.078253	0.213059	0.335831	-0.083144	0.188484	0.613939	-0.083144	0.131121	0.613939	-0.068471	0.106535	0.514907	-0.063580	0.065555	0.391129	-0.058690	0.819480	2.856380	-0.435219	0.000000	0.000000	18.268582	0.314771	2.230295	-1.448519	-15.357819	17.855197	30.167142	77.462710	-4.227855	3.643460	6.669260	-11.034338	112.532185	10.351560	12.789100	-5.756493	-13.454765
1.508475	0.499715	-4.134244	89.920658	0.218563	0.672642	0.655129	4.320729	0.174824	-14.852563	11.013391	0.192220	16.783457	13.425113	0.000000	3.487034	0.030057	-1.657770	7.315439	0.127678	14.227538	-8.754853	0.000000	0.121114	0.254263	-0.111261	0.224920	0.338169	-0.118215	0.198978	0.618214	-0.118215	0.138421	0.618214	-0.097354	0.112466	0.518492	-0.090400	0.069204	0.393853	-0.083446	0.865102	2.876269	-0.618802	0.000000	0.000000	18.240997	0.312593	2.201151	-1.262083	-15.244362	18.257036	30.207177	76.574962	-4.044684	4.163879	6.220370	-11.300861	104.297173	11.920484	16.622588	-5.517932	-12.813529
1.525424	0.506813	-4.160201	89.922499	0.218812	0.672557	0.655079	4.329052	0.214343	-14.678294	10.968352	0.191434	16.726702	13.235803	0.000000	3.549285	-0.039258	-2.239495	7.396587	0.129095	14.570456	-7.838734	0.000000	0.126368	0.251053	-0.142087	0.234678	0.333900	-0.150968	0.207610	0.610409	-0.150968	0.144426	0.610409	-0.124326	0.117345	0.511946	-0.115446	0.072207	0.388880	-0.106566	0.902634	2.839956	-0.790247	0.000000	0.000000	18.237339	0.334037	2.144203	-1.087392	-15.084046	18.503898	30.327113	75.907157	-3.902952	4.925508	5.718235	-11.586458	96.268695	13.521454	22.103134	-5.454331	-11.545621
1.542373	0.486352	-4.192731	89.930219	0.219121	0.672468	0.655061	4.345329	0.226760	-14.489204	10.920498	0.190599	16.734940	13.083921	0.000000	3.629005	-0.083142	-2.811649	7.487663	0.130684	14.920332	-6.930670	0.000000	0.130310	0.243575	-0.176470	0.242000	0.323954	-0.187500	0.214087	0.592227	-0.187500	0.148932	0.592227	-0.154412	0.121006	0.496697	-0.143382	0.074459	0.377297	-0.132353	0.930795	2.755365	-0.981475	0.000000	0.000000	18.277771	0.380116	2.088216	-0.911634	-14.880217	18.564559	30.504941	75.699352	-3.762235	5.886971	5.191855	-11.880985	88.758871	15.101832	28.739135	-5.547310	-9.761723
1.559322	0.440985	-4.228267	89.937024	0.219479	0.672381	0.655079	4.369077	0.214019	-14.273961	10.876834	0.189837	16.808319	12.964682	0.000000	3.720971	-0.104701	-3.410205	7.590429	0.132478	15.281606	-5.989812	0.000000	0.132543	0.232289	-0.215503	0.246146	0.308945	-0.228972	0.217755	0.564788	-0.228972	0.151483	0.564788	-0.188565	0.123079	0.473684	-0.175096	0.075735	0.359816	-0.161627	0.946741	2.627703	-1.198564	0.000000	0.000000	18.352464	0.454453	2.046488	-0.691554	-14.688113	18.688336	30.711384	75.868976	-3.647543	6.991411	4.634540	-12.176686	81.758835	16.643239	36.301667	-5.779649	-7.556218
1.576271	0.376154	-4.261573	89.959935	0.219853	0.672303	0.655124	4.389444	0.181688	-14.048884	10.830549	0.189029	16.936692	12.875132	0.000000	3.814102	-0.098208	-3.873905	7.693968	0.134285	15.585188	-5.235986	0.000000	0.133115	0.217795	-0.262895	0.247207	0.289667	-0.279326	0.218694	0.529547	-0.279326	0.152137	0.529547	-0.230033	0.123610	0.444128	-0.213602	0.076062	0.337365	-0.197172	0.950826	2.463741	-1.462145	0.000000	0.000000	18.442011	0.566980	2.023371	-0.399433	-14.530099	19.041869	30.911809	76.407566	-3.589001	8.147707	4.044812	-12.471369	75.326177	18.139954	44.264689	-6.091180	-5.061357
